<svg xmlns="http://www.w3.org/2000/svg" viewBox="0 0 100 92.42"><defs><style>.cls-1{fill:#5c8869;}.cls-2{fill:#77aa86;}.cls-3{fill:#8eb89b;}.cls-4{fill:#fff;}.cls-5{fill:#743728;}.cls-6{fill:#a45d53;}.cls-7{fill:#703223;}</style></defs><g id="Livello_2" data-name="Livello 2"><g id="Livello_1-2" data-name="Livello 1"><circle class="cls-1" cx="54.15" cy="46.21" r="45.17"/><path d="M54.15,92.42c-21.47,0-31-4.9-39.59-12.59S.69,57.65.69,45.4,6.94,18.74,16.87,11.57C22.15,7.76,26.06,0,54.15,0,66.86,0,77.91,5.13,86.57,13.79a45.86,45.86,0,0,1,0,64.85A45.88,45.88,0,0,1,54.15,92.42Zm0-90.69A44.48,44.48,0,0,0,22.69,77.67,44.48,44.48,0,1,0,85.6,14.76,44.19,44.19,0,0,0,54.15,1.73Z"/><circle class="cls-2" cx="45.85" cy="46.21" r="45.17"/><path d="M45.85,92.06A45.85,45.85,0,0,1,13.43,13.79,45.85,45.85,0,0,1,78.27,78.64,45.53,45.53,0,0,1,45.85,92.06Zm0-90.33A44.48,44.48,0,0,0,14.4,77.67,44.48,44.48,0,1,0,77.31,14.76,44.23,44.23,0,0,0,45.85,1.73Z"/><circle class="cls-3" cx="45.85" cy="46.21" r="39.78"/><path d="M45.85,86.68A40.47,40.47,0,0,1,17.24,17.6,40.46,40.46,0,0,1,74.46,74.82,40.16,40.16,0,0,1,45.85,86.68Zm0-79.56A39.09,39.09,0,0,0,18.21,73.86,39.1,39.1,0,0,0,73.5,18.57,38.84,38.84,0,0,0,45.85,7.12Z"/><line class="cls-4" x1="71.15" y1="8.96" x2="76.7" y2="7.09"/><polygon points="71.34 9.62 70.95 8.31 76.51 6.43 76.9 7.74 71.34 9.62"/><line class="cls-4" x1="63.54" y1="4.56" x2="68.31" y2="3.25"/><polygon points="63.66 5.23 63.42 3.89 68.19 2.58 68.43 3.92 63.66 5.23"/><line class="cls-4" x1="77.37" y1="13.86" x2="83.91" y2="12.23"/><rect x="77.27" y="12.36" width="6.74" height="1.37" transform="translate(-0.76 19.86) rotate(-13.98)"/><line class="cls-4" x1="82.47" y1="19.57" x2="89.42" y2="18.2"/><rect x="82.41" y="18.2" width="7.08" height="1.37" transform="translate(-2.03 17) rotate(-11.17)"/><line class="cls-4" x1="86.44" y1="26.09" x2="93.84" y2="24.96"/><rect x="86.4" y="24.84" width="7.49" height="1.37" transform="translate(-2.81 13.85) rotate(-8.65)"/><line class="cls-4" x1="89.97" y1="34.12" x2="97.87" y2="33.09"/><rect x="89.94" y="32.92" width="7.97" height="1.37" transform="translate(-3.54 12.35) rotate(-7.39)"/><line class="cls-4" x1="90.9" y1="42.32" x2="99.22" y2="41.4"/><rect x="90.88" y="41.18" width="8.37" height="1.37" transform="translate(-4 10.62) rotate(-6.26)"/><line class="cls-4" x1="90.53" y1="51.83" x2="99.18" y2="51.09"/><rect x="90.52" y="50.78" width="8.68" height="1.37" transform="translate(-4 8.19) rotate(-4.84)"/><line class="cls-4" x1="88.43" y1="60.48" x2="97.22" y2="60.18"/><rect x="88.43" y="59.65" width="8.79" height="1.37" transform="translate(-2.02 3.23) rotate(-1.97)"/><polygon points="84.88 69.11 84.84 67.74 93.96 67.5 93.99 68.86 84.88 69.11"/><line class="cls-4" x1="80.05" y1="75.57" x2="88.14" y2="75.64"/><polygon points="80.03 76.25 80.06 74.89 88.15 74.95 88.12 76.32 80.03 76.25"/><line class="cls-4" x1="73.48" y1="82.2" x2="81.21" y2="82.38"/><polygon points="73.45 82.88 73.5 81.52 81.23 81.69 81.18 83.06 73.45 82.88"/><line class="cls-4" x1="65.02" y1="87.21" x2="73.35" y2="87.1"/><polygon points="73.32 87.79 64.99 87.9 65.05 86.53 73.38 86.42 73.32 87.79"/><path class="cls-5" d="M23.35,44.74S21.28,52,28,60.17c4.34,5.32,11.74,8.88,16.58,8.89,14.51,0,19.35-11.6,22.11-20,1.65-5,2.54-13.74,1.66-17.73-.33-1.49-2.19-4.77-3.71-4.69-.64,0-.72.15-1.15-.37a4.39,4.39,0,0,0-1.38-1.91c-2.47-2-11.15-.77-16.16.56C39.91,26.55,36,28.3,32,31.67A26.77,26.77,0,0,0,23.35,44.74Z"/><path class="cls-6" d="M64.64,29.13s-14.83.79-17.15,4.79c-6.39,11-7.88,5.55-17.18,10.41-8.88,4.64-1.11,13.77-1,14a19.37,19.37,0,0,0,15,8.78c8.12.6,16.1-4.09,20.3-17.71C68,38.43,66.36,32.07,66.36,32.07A6.85,6.85,0,0,0,64.64,29.13Z"/><path class="cls-7" d="M62.6,30.77s-7.23,1.43-10.69,2.51c-3.66,1.14-5.93,6.77-6.77,8.3-.1.19-.44.78-.52,1-.16.42-.67,1-4.29,1.46-4.61.54,1.8,1.38,1.8,1.38s4.62.13,4.8-1.26c.42-3.32,1.86-7.24,6.22-9.2,1.32-.59,7.77-2.32,8.65-2.79A1.82,1.82,0,0,0,62.6,30.77Z"/></g></g></svg>