<svg xmlns="http://www.w3.org/2000/svg" viewBox="0 0 351.57 383.26"><defs><style>.cls-1{fill:#80b192;}</style></defs><g id="Livello_2" data-name="Livello 2"><g id="Livello_1-2" data-name="Livello 1"><path class="cls-1" d="M237.18,0c6.72,1.81,13.34,3.85,18.9,8.33,9.43,7.62,14.7,17.43,15.46,29.54.36,5.79-2.52,9.59-7.2,10s-8.2-2.73-8.72-8.57c-1-11.28-6.56-18.92-17.41-22.27a33.14,33.14,0,0,0-9.6-1.11q-92.82-.11-185.63,0c-14,0-23.63,7-26.26,19.14a31.79,31.79,0,0,0-.48,6.69q0,125.94,0,251.87c0,15.8,9.71,25.6,25.59,25.88,4.87.09,9.74-.08,14.6.09a7.89,7.89,0,0,1,7.66,7.68c.11,3.84-3,7.92-7,7.93-8.7,0-17.63.58-26.06-1.09-18.48-3.68-30.85-20-31-39.31C0,276.92,0,259.08,0,241.24V43.64C0,20.69,10.51,6.94,32.75.66c.31-.09.55-.43.83-.66Z"/><path class="cls-1" d="M80,223.44q0-58.75,0-117.51c0-25,17.11-42.15,42-42.16q93.75,0,187.5,0c24.81,0,42.06,17.32,42.07,42.2q0,117.71,0,235.41c0,21.9-13.45,37.9-34.83,41.51a40.57,40.57,0,0,1-6.71.35q-94.32,0-188.63,0C97.2,383.24,80,366,80,341.7Q80,282.57,80,223.44Zm255.4,0q0-59,0-117.89c0-15.86-9.76-25.59-25.67-25.59-62.62,0-125.24.17-187.86-.15-13.36-.07-26,9-26,26q.12,117.69.11,235.39a32,32,0,0,0,1.9,10.95c3.78,10,12.5,15.23,24.64,15.23,62.13,0,124.25-.11,186.37.08,17.3.05,26.86-12.32,26.7-26.51C335.08,301.78,335.38,262.61,335.38,223.44Z"/><path class="cls-1" d="M215.46,271.59H155.23c-1,0-2,0-3,0-5.05-.34-8.55-3.77-8.44-8.24s3.64-7.85,8.73-7.92c7.85-.1,15.71,0,23.56,0H277.46c6.19,0,9.79,2.79,10,7.68.21,5.13-3.28,8.48-9.14,8.5-16,.05-31.92,0-47.88,0Z"/><path class="cls-1" d="M215.85,143.72q-31.44,0-62.87,0c-6.54,0-10.51-4.81-8.64-10.37a7.35,7.35,0,0,1,6.87-5.42c.75,0,1.5,0,2.25,0q62.29,0,124.61,0c5.56,0,8.76,2.32,9.31,6.6.67,5.32-2.9,9.23-8.66,9.24-17.84.05-35.68,0-53.52,0Z"/><path class="cls-1" d="M215.85,207.49c-21.08,0-42.16,0-63.24,0-6.56,0-10.48-5.44-8-11,1.6-3.64,4.66-4.88,8.5-4.86,12.6,0,25.2,0,37.79,0h87.2c5.8,0,9.3,3,9.37,7.85a7.44,7.44,0,0,1-7.6,7.94c-5.61.16-11.22.07-16.84.07Z"/><path class="cls-1" d="M215.85,335.34q-31.44,0-62.87,0c-6.54,0-10.51-4.81-8.64-10.37a7.35,7.35,0,0,1,6.87-5.42c.75-.06,1.5-.06,2.24-.06H278.07c5.56,0,8.76,2.31,9.3,6.6.68,5.31-2.89,9.22-8.65,9.24-17.84,0-35.68,0-53.51,0Z"/></g></g></svg>