<svg xmlns="http://www.w3.org/2000/svg" viewBox="0 0 511.01 511.03"><defs><style>.cls-1{fill:#80b192;}</style></defs><g id="Livello_2" data-name="Livello 2"><g id="Livello_1-2" data-name="Livello 1"><path class="cls-1" d="M511,30V268.5c-.59,1.33-1.28,2.62-1.74,4a37.1,37.1,0,0,1-35.45,25.76q-80.06.11-160.13,0a37.1,37.1,0,0,1-37-36.81q-.18-112.24,0-224.49A36.92,36.92,0,0,1,314,0Q394,0,474.09.08c15,0,26,7.18,32.94,20.35C508.64,23.46,509.7,26.78,511,30Z"/><path class="cls-1" d="M204.61,511H30a15.28,15.28,0,0,0-2.17-1C9.73,504.35,0,491.1,0,472.11q0-111,0-222a36.94,36.94,0,0,1,36.9-37.3q80.31-.19,160.63,0c20.05,0,36.74,16.53,36.78,36.52q.23,112.5,0,225c0,13-5.85,23.45-16.82,30.55C213.52,507.45,208.92,509,204.61,511Z"/><path class="cls-1" d="M306.41,511c-4.72-2.29-9.82-4-14.09-7-10.23-7.07-15.53-17.29-15.61-29.67q-.33-48.6,0-97.2a37.05,37.05,0,0,1,36.66-36.6q80.5-.22,161,0c16,0,29.76,10.44,34.91,25.75.46,1.37,1.15,2.66,1.74,4V480.09c-1.07,3.06-1.94,6.21-3.26,9.16-5.4,12.07-15.32,18.51-27.68,21.78Z"/><path class="cls-1" d="M117,0h79.81c21,0,37.51,16.17,37.59,37.11q.19,48.14,0,96.27a37.22,37.22,0,0,1-37.26,37.09q-79.82.13-159.62,0C16.21,170.47,0,154,0,132.75Q0,85.11,0,37.48C0,16.2,16.26,0,37.63,0Z"/></g></g></svg>