<?xml version="1.0" encoding="utf-8"?>
<!-- Generator: Adobe Illustrator 25.0.1, SVG Export Plug-In . SVG Version: 6.00 Build 0)  -->
<svg version="1.1" id="Livello_1" xmlns="http://www.w3.org/2000/svg" xmlns:xlink="http://www.w3.org/1999/xlink" x="0px" y="0px"
	 viewBox="0 0 512 512" style="enable-background:new 0 0 512 512;" xml:space="preserve">
<style type="text/css">
	.st0{fill:#8EB89B;}
	.st1{fill:#77AA86;}
	.st2{fill:#D77A61;}
	.st3{fill:#743728;}
	.st4{fill:#A45D53;}
	.st5{fill:#703223;}
</style>
<path class="st0" d="M406.6,512H0V128h512v278.6L406.6,512z"/>
<path class="st1" d="M0,128h512v64H0V128z"/>
<path class="st0" d="M96,64H64V16c0-8.8,7.2-16,16-16s16,7.2,16,16V64z"/>
<path class="st0" d="M448,64h-32V16c0-8.8,7.2-16,16-16s16,7.2,16,16V64z"/>
<path class="st1" d="M406.6,406.6V512L512,406.6H406.6z"/>
<path class="st2" d="M512,160H0V80c0-17.7,14.3-32,32-32h448c17.7,0,32,14.3,32,32V160z"/>
<g>
	<path class="st3" d="M162.5,313.9c0,0-8.6,30,19.2,64.1c18,22.1,48.8,36.9,68.9,36.9c60.3,0.1,80.4-48.2,91.9-82.9
		c6.9-20.8,10.5-57.1,6.9-73.7c-1.4-6.2-9.1-19.8-15.4-19.5c-2.7,0.1-3,0.6-4.8-1.5c-0.7-0.9-1-4.2-5.7-7.9
		c-10.3-8.1-46.4-3.2-67.2,2.3c-24.9,6.6-41.2,13.9-57.8,27.9C183.9,271.8,169.5,289.5,162.5,313.9z"/>
	<path class="st4" d="M334.1,249c0,0-61.6,3.3-71.3,19.9c-26.5,45.8-32.7,23.1-71.4,43.2c-36.9,19.3-4.6,57.2-4.1,58
		c1.5,2.3,20.2,33.4,62.3,36.5c33.8,2.5,66.9-17,84.4-73.6c14-45.4,7.3-71.8,7.3-71.8S339.5,254.2,334.1,249z"/>
	<path class="st5" d="M325.6,255.8c0,0-30.1,5.9-44.5,10.4c-15.2,4.7-24.6,28.2-28.1,34.5c-0.4,0.8-1.8,3.3-2.2,4.1
		c-0.7,1.7-2.8,4.3-17.8,6.1c-19.1,2.2,7.5,5.7,7.5,5.7s19.2,0.5,20-5.2c1.8-13.8,7.7-30.1,25.9-38.2c5.5-2.5,32.3-9.7,35.9-11.6
		C325.3,260,325.6,255.8,325.6,255.8z"/>
</g>
</svg>
