<?xml version="1.0" encoding="utf-8"?>
<!-- Generator: Adobe Illustrator 25.0.1, SVG Export Plug-In . SVG Version: 6.00 Build 0)  -->
<svg version="1.1" id="Capa_1" xmlns="http://www.w3.org/2000/svg" xmlns:xlink="http://www.w3.org/1999/xlink" x="0px" y="0px"
	 viewBox="0 0 512 512" style="enable-background:new 0 0 512 512;" xml:space="preserve">
<style type="text/css">
	.st0{fill:#78D2FA;}
	.st1{fill:#77AA86;}
</style>
<path class="st0" d="M379,469c-117.6,67.9-268,27.6-336-90s-27.6-268,90-336s268-27.6,336,90S496.6,401.1,379,469z"/>
<g>
	<path class="st1" d="M273.4,182.5c-1.8,0.4-5.2,1.3-6.7,2.5c-1.9,1.5,1,3.4,0,4.3c-1.8,1.5-3.1,4.1-7.1,3.9
		c-8.2-0.5-20.7-11.1-28.2-15.1c12-12.4-7-14.2-14.4-13.6c-9.6,0.8-26.2-0.1-34.9,4.8c-6,3.4-14.1,17.5-19,23
		c-6.8,7.8-13.5,14.5-17.9,23.8c-16.1,34.2,8.7,73.4,47.7,68.8c10.8-1.3,22.2-8.1,31.8,0.9c7.1,6.6,3.3,12.9,5.2,20.6
		c1.6,6.7,9,10.8,11.6,16.9c4.9,11.8,1.8,19.1-1.7,30c-4.6,14.2,7.3,31.2,11.9,44.9c2.3,6.9,9.1,26.3,15.8,29.3
		c10.5,4.8,26.9-9.5,33.2-17.2c4.9-6,3.3-12.1,6.6-17.8c3.6-6.1,8.1-7.9,10.6-15.8c2.7-8.5,5.5-10.6,11.2-16.8
		c9.1-9.9,7.7-15.8,4.1-27.6c-7.6-24.5,20-36,32.4-54c13-18.8-12.1-12.5-21.9-18.9c-10.1-6.6-14.5-19.2-19.4-29.6
		c-4.9-10.4-8.9-26.1-17-34.6C301.1,188.8,282.2,185.7,273.4,182.5z"/>
	<path class="st1" d="M400.4,346.8c-3.9,13.2-7.8,26.4-11.8,39.6c-2.7,9.2-12.4,39.5-26,20.1c-5.2-7.4-1-17,1.9-23.8
		c3.6-8.5-1.3-12.8,1.3-20.9c2.9-9.3,14.9-9.6,20.5-16.1c3.9-4.5,6.4-11.8,9.3-17.1C397.1,334.8,398.8,340.8,400.4,346.8z"/>
	<path class="st1" d="M469,133.1C426.7,59.7,352.2,16.4,273.6,10.7l-32.2,40.3l-68.9,24.2l-18.5,44.8l28.5,40l3-8.4
		c5.1-14.1,18.4-23.5,33.4-23.5h47l54,19l18.6,17.8v11.3l25.9,49.6l7.5-2.8c16.3-6,31-15.5,43.3-27.7l-6.2-9.4c-2-3,0.1-7,3.7-7H428
		c4.4,0,8.6,1.9,11.5,5.3l12.3,14.4c1.2,1.4,2.1,2.9,2.7,4.6l13.6,37.4l6.5-6.5c4.1-4.1,6.1-9.6,6.2-15.4c0.1-4.6,2.1-9,5.6-12.1
		l5-4.4c1.2-1.1,2.6-2,4.1-2.7C490,176.7,481.3,154.4,469,133.1z"/>
	<path class="st1" d="M101.1,142.7l11.8-12.6c8.6-9.2,11-22.5,6.2-34.2l0,0C114,83.6,102.9,75.7,90.6,74
		c-43.4,39.4-70.4,92.4-78.2,148.5c9.2,8,18.8,16.6,18.7,17.4c-0.1,1.4,34.4-4.3,34.4-4.3l-17.8-26.1l25.5-18.2L101.1,142.7z"/>
	<path class="st1" d="M125,387.7c11.1-3.6,17.2-15.5,13.6-26.6l-3.2-9.7c-1.4-4.3-1.4-8.8,0-13.1l0,0c4-12.1-3.6-24.9-16-27.3
		l-24.9-4.9l-45.4-34.5l-37.5,12.2c3.7,32.6,14,65,31.4,95.2c16.1,28,36.9,51.5,60.8,70.3l11.2-58.4L125,387.7z"/>
</g>
<path d="M374,460.4l-0.4,0.2c-4.8,2.8-6.4,8.9-3.6,13.7c1.9,3.2,5.2,5,8.7,5c1.7,0,3.4-0.4,5-1.4l0.4-0.2c4.8-2.8,6.4-8.9,3.6-13.7
	C384.9,459.2,378.8,457.6,374,460.4z"/>
<path d="M477.7,128.1C443.5,68.9,388.3,26.5,322.3,8.8c-66-17.7-135-8.6-194.2,25.6S26.5,123.8,8.8,189.8S0.2,324.8,34.4,384
	c30.7,53.1,79.4,93.5,137.2,113.6c27.4,9.6,56,14.3,84.6,14.3c31.1,0,62.1-5.6,91.4-16.9c5.2-2,7.7-7.8,5.7-12.9s-7.8-7.7-12.9-5.7
	c-78,30-162.5,16.4-225.6-31l9-46.8l4.3-1.4c16.3-5.3,25.3-22.9,20-39.2l-3.2-9.7c-0.7-2.3-0.7-4.6,0-6.9c2.8-8.5,1.8-17.7-2.7-25.4
	s-12.1-13.1-20.9-14.8l-22.6-4.4l-43.5-33.1c-2.6-2-6-2.6-9.1-1.6l-25.5,8.3c-0.5-9.1-0.5-18.2,0-27.3c1,0.9,1.7,1.6,2.1,2
	c0.5,0.8,1.1,1.6,1.8,2.3c2.1,1.9,4,2.8,7.9,2.8c3.6,0,9-0.7,17.9-2c8.4-1.2,16.8-2.7,16.9-2.7c3.4-0.6,6.2-2.8,7.5-5.9
	c1.3-3.1,1-6.7-0.9-9.6l-12.3-18l17.6-12.6c1.2-0.8,2.1-1.9,2.9-3.2l27.2-47.5l11-11.8c11.2-12,14.4-29.6,8.2-44.8
	c-3.7-9-10.1-16.4-18.2-21.5c8.7-6.9,18.1-13.2,28-18.9c36.3-21,76-31.1,115.2-31.5l-17.9,22.4l-66.2,23.2c-2.7,0.9-4.8,3-5.9,5.6
	l-18.5,44.8c-1.3,3.2-0.9,6.8,1.1,9.6l27,37.8c-3.9,3.5-7.6,8.7-12.1,15.1c-2,2.8-3.8,5.4-5.1,6.9c-1.1,1.3-2.2,2.6-3.3,3.8
	c-5.8,6.5-11.8,13.3-16.1,22.3c-9.4,19.9-7.5,42.9,4.9,60.2c12,16.7,31.8,25.2,53,22.7c3.4-0.4,6.7-1.2,9.8-2
	c8.6-2.1,11.3-2.3,14,0.2c1.3,1.3,1.5,1.5,1.4,5.7c0,2.7,0,6.1,0.9,9.9c1.5,6.1,5.4,10.4,8.5,13.8c1.5,1.7,3.1,3.4,3.6,4.6
	c3.1,7.5,1.8,11.6-1.2,20.7c-0.3,0.8-0.5,1.6-0.8,2.4c-4.5,14,1.8,27.9,7.3,40.1c1.8,4,3.5,7.7,4.6,11c9,26.7,15.7,32.8,21.1,35.2
	c2.8,1.3,5.8,1.9,8.7,1.9c14.4,0,29.5-13.4,36.4-21.9c4.3-5.3,5.4-10.7,6.2-14.6c0.4-1.9,0.7-3.5,1.3-4.5c0.9-1.5,1.9-2.7,3.3-4.2
	c2.7-3,6-6.8,8.2-13.6c1.6-5.2,2.8-6.4,6.8-10.6c0.7-0.7,1.4-1.5,2.2-2.4c13.3-14.5,9.9-25.6,6.3-37.3c-3.1-9.9,2.3-16.2,15.2-28.2
	c5.6-5.2,11.4-10.6,15.9-17.1c2-2.8,7.9-11.5,4.2-20c-3.6-8.4-12.8-9.8-20.2-10.9c-2.9-0.4-7.3-1.1-8.7-2c-6.2-4-10-12.5-13.6-20.7
	c-0.7-1.6-1.4-3.2-2.2-4.8c-1.3-2.8-2.6-6.1-4-9.7c-3.6-9.4-7.8-20.1-14.8-27.5c-6.3-6.7-18.2-9.9-28.7-12.7c-3.5-1-6.9-1.9-9.1-2.7
	c-1.8-0.7-3.8-0.8-5.7-0.4c-5.1,1.2-8.3,2.5-10.7,4.4c-0.6,0.5-2.5,2.1-3.6,4.8c-3.7-1.8-8.7-5.1-11.8-7.2c-0.1,0-0.1-0.1-0.2-0.1
	c1-4.2,0.1-7.5-0.9-9.6c-5.6-11.8-24.1-10.9-27.8-10.6c-2.1,0.2-4.7,0.3-7.5,0.4c-4.4,0.2-9.2,0.3-14,0.9l0.2-0.7
	c3.6-10.1,13.3-16.9,24-16.9h5.7c5.5,0,10-4.5,10-10c0-5.5-4.5-10-10-10H219c-15.9,0-30.5,8.4-38.7,21.6l-14.9-20.9l14.7-35.6
	l64.7-22.7c1.8-0.6,3.3-1.7,4.5-3.2l28.8-36.1c73.5,7,142.7,48.2,182.3,116.9c10.6,18.3,18.4,37.5,23.6,57.2l-4.2,3.8
	c-5.5,4.9-8.8,12-8.9,19.4c0,0.1,0,0.2,0,0.2l-6.9-19c-1-2.8-2.5-5.4-4.5-7.7l-12.3-14.4c-4.8-5.6-11.7-8.8-19.1-8.8h-15.1
	c-5.4,0-10.2,2.9-12.8,7.6c-2.5,4.7-2.2,10.4,0.7,14.9l1.5,2.3c-9.7,8.4-21,15.1-33,19.6l-20.7-39.6v-8.8c0-2.7-1.1-5.3-3.1-7.2
	L327,139.8c-1-1-2.3-1.7-3.6-2.2l-16.8-5.9c-5.2-1.8-10.9,0.9-12.7,6.1c-1.8,5.2,0.9,10.9,6.1,12.7l14.7,5.2l14,13.3v7
	c0,1.6,0.4,3.2,1.1,4.6l25.9,49.6c2.3,4.5,7.6,6.5,12.3,4.8l7.5-2.8c17.5-6.5,33.7-16.8,46.9-30c3.4-3.4,3.9-8.6,1.2-12.6l-0.5-0.8
	h4.8c1.5,0,2.9,0.7,3.9,1.8l12.3,14.4c0.4,0.5,0.7,1,0.9,1.6l13.6,37.4c1.2,3.2,3.9,5.6,7.2,6.3c0.7,0.2,1.4,0.2,2.2,0.2
	c2.6,0,5.2-1,7.1-2.9l6.5-6.5c4.1-4.1,6.9-9.3,8.3-15c10,80.2-21.4,163.2-87.9,215.3c-4.3,3.4-5.1,9.7-1.7,14
	c3.4,4.3,9.7,5.1,14,1.7c48-37.7,81-91.5,92.8-151.7C519.2,244.8,508.7,181.8,477.7,128.1z M47.3,282.7l41.2,31.4
	c1.2,0.9,2.6,1.6,4.1,1.9l24.9,4.9c3.2,0.6,5.8,2.5,7.5,5.3c1.6,2.8,2,6,1,9.1c-2.1,6.3-2.1,13,0,19.3l3.2,9.7
	c1.9,5.8-1.3,12.1-7.1,14l-9.9,3.2c-3.5,1.1-6,4-6.7,7.6l-8,41.7c-17.6-16.1-33-35.1-45.6-56.8c-15.3-26.5-24.8-54.7-29.1-83.3
	L47.3,282.7z M21.2,240.5c0,0.4,0.1,0.9,0.2,1.3C21.3,241.4,21.2,240.9,21.2,240.5z M109.8,99.7c3.3,8,1.6,17.2-4.3,23.5l-11.8,12.6
	c-0.5,0.6-1,1.2-1.4,1.9l-26.7,46.6l-23.7,17c-4.4,3.2-5.5,9.3-2.4,13.8l8.9,13c-5.1,0.8-9.7,1.4-12.8,1.7c-0.6-0.6-1.2-1.1-1.8-1.7
	c-2.4-2.2-5.7-5.2-10.6-9.5c8.1-50.3,32.3-97.6,70.4-133.8C100.9,87.2,106.9,92.6,109.8,99.7z M209.5,174.8c3-0.1,5.9-0.2,8.4-0.4
	c1.3-0.1,2.8-0.1,4.3,0c-0.6,1.6-0.8,3.4-0.6,5.2c0.5,3.1,2.4,5.8,5.2,7.3c1.9,1,4.5,2.7,7.3,4.6c7.8,5.2,16.7,11.1,25,11.6
	c7.6,0.5,11.8-3.8,13.6-5.7c0.1-0.1,0.3-0.3,0.4-0.4c1-0.8,2-1.9,2.7-3.3c1.6,0.5,3.3,0.9,5,1.4c5.9,1.6,16.9,4.6,19.4,7.2
	c4.3,4.6,7.7,13.3,10.7,21c1.5,3.9,2.9,7.6,4.5,11c0.7,1.5,1.4,3,2,4.5c4.6,10.3,9.8,22,20.9,29.2c5,3.3,11.2,4.2,16.6,5.1
	c0.7,0.1,1.4,0.2,2.2,0.3c-3.2,4.5-7.8,8.8-12.7,13.3c-12.4,11.5-27.8,25.9-20.7,48.8c3.3,10.8,3.5,12-1.9,17.8
	c-0.7,0.8-1.4,1.5-2.1,2.2c-4.6,4.9-8.3,8.8-11.3,18.3c-0.9,2.8-2,4-4.1,6.4c-1.6,1.9-3.7,4.2-5.6,7.4c-2.3,3.9-3,7.6-3.6,10.6
	c-0.6,3-0.9,4.4-2.1,5.9c-2.6,3.2-7.6,8-12.6,11.2c-4.7,3-7.4,3.4-8.4,3.3c-1.1-1.1-4.9-6.2-10.8-23.5c-1.4-4.3-3.4-8.7-5.4-12.9
	c-4.3-9.4-8.7-19.1-6.5-25.7c0.3-0.8,0.5-1.5,0.7-2.3c3.4-10.4,6.7-20.3,0.7-34.6c-1.8-4.4-4.7-7.6-7.3-10.4
	c-1.7-1.8-3.5-3.9-3.8-5.1c-0.4-1.4-0.3-3.1-0.3-5.1c0-5.2,0.1-13.1-7.8-20.5c-11.1-10.4-24-7.2-32.5-5.1c-2.6,0.6-5.1,1.3-7.3,1.5
	c-14,1.6-26.6-3.7-34.4-14.5c-8.2-11.4-9.4-26.7-3.1-40c3-6.4,7.6-11.6,12.9-17.6c1.2-1.3,2.3-2.6,3.5-4c1.9-2.2,4.1-5.3,6.4-8.5
	c2.7-3.8,7.8-11,9.9-12.4C191.5,175.4,201.9,175,209.5,174.8z"/>
<path d="M374,422.7c10.2-1.7,17.9-12.3,24.1-33.4l11.8-39.6c0.5-1.8,0.5-3.6,0.1-5.4l-4.8-18.1c-1.1-4-4.4-6.9-8.5-7.4
	c-4.1-0.5-8,1.6-10,5.2c-1.1,2-2.1,4.2-3,6.2c-1.6,3.5-3.3,7.1-5,9.1c-1,1.1-3.5,2.3-5.9,3.5c-5.8,2.8-13.6,6.6-16.7,16.2
	c-1.9,6-1.2,10.7-0.7,14.1c0.4,3,0.5,4-0.3,5.9l-0.1,0.2c-3.2,7.5-9.1,21.4-0.8,33.2c5.9,8.4,12.2,10.6,17,10.6
	C372.3,422.9,373.2,422.9,374,422.7z M370.7,400.8c-1.9-2.7,0.9-9.4,2.8-13.9l0.1-0.2c3-7.2,2.2-12.6,1.6-16.7
	c-0.4-2.6-0.5-3.7,0-5.2c0.4-1.2,2.7-2.5,6.3-4.2c1.6-0.8,3.3-1.6,5-2.6l-7.6,25.5c-3.2,10.8-6,15.8-7.7,18
	C371.2,401.4,371,401.1,370.7,400.8z"/>
<path d="M269.4,118.6c-5.2-1.8-10.9,0.9-12.7,6.1c-1.8,5.2,0.9,10.9,6.1,12.7l0.7,0.2c1.1,0.4,2.2,0.6,3.3,0.6c4.1,0,8-2.6,9.4-6.7
	c1.8-5.2-0.9-10.9-6.1-12.7L269.4,118.6z"/>
</svg>
