<svg xmlns="http://www.w3.org/2000/svg" viewBox="0 0 511.23 511.17"><defs><style>.cls-1{fill:#80b192;}</style></defs><g id="Livello_2" data-name="Livello 2"><g id="Livello_1-2" data-name="Livello 1"><path class="cls-1" d="M410.42,511.17H315.61c-8.36-3.71-11.15-10.23-11.09-19.18.26-38.23.12-76.46.11-114.69,0-15.79-10.37-26.21-26.21-26.28C264,351,249.5,351,235,351c-18.5,0-28.36,9.8-28.37,28.23,0,37.57-.18,75.14.12,112.7.07,9-2.61,15.48-10.94,19.24H100a22.54,22.54,0,0,0-3-1.34c-26.84-7.74-42-27.93-42-55.9q0-72.35,0-144.7c0-2.07-.17-4.14-.28-6.54-3.82,0-7,.14-10.12,0a44.94,44.94,0,0,1-31.72-14.76c-18-19.52-16.94-47.67,2.58-67.2Q118,118,220.72,15.37c1.53-1.52,3.11-3,4.76-4.4,18.44-15.52,46.1-14.48,63.11,2.52Q393.25,118.06,497.82,222.68a46.2,46.2,0,0,1,12,20.95c.38,1.38.95,2.7,1.43,4.05v17a27.71,27.71,0,0,0-1.57,3.48c-6.44,21.52-23.83,34.55-46.27,34.61H456.5v7q0,73,0,146.12a55,55,0,0,1-42,53.93C413.1,510.16,411.78,510.71,410.42,511.17Z"/></g></g></svg>