<svg xmlns="http://www.w3.org/2000/svg" viewBox="0 0 383.36 382.57"><defs><style>.cls-1{fill:#80b192;}</style></defs><g id="Livello_2" data-name="Livello 2"><g id="Livello_1-2" data-name="Livello 1"><path class="cls-1" d="M0,39.74a24.72,24.72,0,0,0,1.37-3.3A47.48,47.48,0,0,1,47.68,0Q119.16,0,190.62,0c8.21,0,14.86,5.47,16,12.92,1.25,8.38-3.17,15.84-11,18a27.67,27.67,0,0,1-7.4.68q-69,.06-138.07,0c-5.46,0-10.67,1-14.07,5.5-1.93,2.56-2.83,5.93-4,9A11.43,11.43,0,0,0,32,49.91q0,141.08,0,282.14c0,8.91,3.15,14.43,10.2,16.87A27.69,27.69,0,0,0,51,350.15c45.9.07,91.8,0,137.7.14a24.05,24.05,0,0,1,10.38,2.2c6.21,3.1,9,10.39,7.42,17.27C205,376.48,199.41,381,191.65,382c-1.62,0-3.23-.13-4.85-.13H51.24c-1.62,0-3.24.08-4.85.13-22.91-1.58-39.24-15-45.2-37.25A16,16,0,0,0,0,342.15Z"/><path class="cls-1" d="M46.41,382.57c0-.2,0-.41,0-.61,1.61,0,3.23-.13,4.85-.13H186.8c1.62,0,3.23.08,4.85.13,0,.2,0,.41,0,.61Z"/><path class="cls-1" d="M328.55,175.11c-3.88-3.89-7-7.06-10.14-10.17q-29.31-28.89-58.63-57.78c-6.73-6.65-6.9-16.35-.63-22.81s16.17-6.55,23.1.24C297,99,311.52,113.53,326.16,128q25.56,25.24,51.13,50.48c8,8,8.09,16.94.09,24.86Q330,250.16,282.62,297c-4.82,4.77-10.48,6.76-17.06,4.54-6.07-2.05-9.68-6.48-10.72-12.78-1-5.94,1.48-10.66,5.62-14.73q32.67-32.15,65.31-64.33c.69-.68,1.3-1.44,2.58-2.89H144.87c-9.41,0-15.42-4.51-17.23-12.81a15.79,15.79,0,0,1,14.12-18.78c1.61-.1,3.24-.06,4.86-.06H328.55Z"/></g></g></svg>