<svg xmlns="http://www.w3.org/2000/svg" viewBox="0 0 383.25 383.25"><defs><style>.cls-1{fill:#80b192;}</style></defs><g id="Livello_2" data-name="Livello 2"><g id="Livello_1-2" data-name="Livello 1"><path class="cls-1" d="M62.13,22.33H22.33v39.8l-.62.58H.74L0,62.13V0H62.13l.58.75v21Z"/><path class="cls-1" d="M22.33,321.13v39.79h39.8l.58.62v21l-.58.63L0,383.25V321.12l.75-.58h21Z"/><path class="cls-1" d="M382.5,62.71h-21l-.62-.58V22.33h-39.8l-.58-.62V.74l.58-.74h62.13l-.12,62.13Z"/><path class="cls-1" d="M0,62.13l.74.58L0,62.88Z"/><path class="cls-1" d="M.75,320.54l-.75.58v-.75Z"/><path class="cls-1" d="M321.12,0l-.58.74c-.06-.24-.11-.49-.17-.74Z"/><path class="cls-1" d="M62.71.75,62.13,0h.75Z"/><path class="cls-1" d="M206.32,206.26H331.44V331.42H206.32Zm73.85,74.48v28.19H309V280.17H280.74Zm-21.88-23H308.9V228.76H228.77V309h28.94V258.29Z"/><path class="cls-1" d="M331.37,177H206.11c0-6.77-.11-13.36.13-19.92,0-.81,1.81-2.16,2.84-2.23,4.1-.26,8.22-.11,12.34-.11h87.45V125.81c-1.13,0-2.44-.16-3.74-.17-14.47,0-28.94-.11-43.41.08-3.39,0-4.2-1.07-4.17-4.27.14-15.58.07-31.17.07-47.08H228.51V125h-22.2V51.88H331.37Zm-50.63-73.92h28.19V74.3H280.17v28.21Z"/><path class="cls-1" d="M51.86,206.28h73.77v51.11h28.66c.08-1.39.2-2.7.21-4,.09-10.85.25-21.69.18-32.54,0-2.82.88-3.7,3.64-3.61,5.23.17,10.47.11,15.71,0,2.11,0,3.21.48,3.2,2.9q-.07,55-.07,110a6.57,6.57,0,0,1-.32,1.29h-125ZM74.18,309h80.33v-29H103V228.79H74.18Z"/><path class="cls-1" d="M177.2,51.87v4.26c0,38.78,0,77.57.09,116.35,0,3.77-.95,4.82-4.78,4.81-38.78-.15-77.56-.09-116.34-.09H51.86V51.87ZM74.3,74.18v80.56h3.91c24.05,0,48.11-.06,72.17.07,3.41,0,4.46-.86,4.44-4.37-.15-24.18-.08-48.37-.08-72.55V74.18Z"/><path class="cls-1" d="M361.54,320.54h21l.63.59v62h-62l-.58-.63v-21c.19-.21.39-.41.59-.62h39.79v-39.8Z"/><path class="cls-1" d="M382.5,62.71l.63-.58Z"/><path class="cls-1" d="M360.92,62.13l.62.58Z"/><path class="cls-1" d="M21.71,62.71l.62-.58Z"/><path class="cls-1" d="M320.54,21.71l.58.62Z"/><path class="cls-1" d="M62.13,22.33l.58-.62Z"/><path class="cls-1" d="M22.33,321.13l-.62-.59Z"/><path class="cls-1" d="M361.54,320.54l-.62.58Z"/><path class="cls-1" d="M383.13,321.13l-.63-.59Z"/><path class="cls-1" d="M62.71,361.54l-.58-.62Z"/><path class="cls-1" d="M321.13,360.92c-.2.21-.4.41-.59.62C320.73,361.33,320.93,361.13,321.13,360.92Z"/><path class="cls-1" d="M62.13,383.13l.58-.63Z"/><path class="cls-1" d="M320.54,382.5l.58.63Z"/><path class="cls-1" d="M257.71,258.29c.19-.2.38-.39.58-.58C258.09,257.9,257.9,258.09,257.71,258.29Z"/><path class="cls-1" d="M280.74,280.17l-.57.57Z"/><path class="cls-1" d="M280.17,102.51l.57.57Z"/><path class="cls-1" d="M103.43,103.36h22v22h-22Z"/></g></g></svg>