<svg xmlns="http://www.w3.org/2000/svg" viewBox="0 0 589.47 593.15"><defs><style>.cls-1{fill:#4e7e5f;}.cls-2{fill:#67a27d;}.cls-3{fill:#80b192;}.cls-4{fill:#fff;}.cls-5{fill:#6b3026;}.cls-6{fill:#9d524b;}.cls-7{fill:#672c22;}.cls-8{fill:#f45f5d;}</style></defs><g id="Livello_2" data-name="Livello 2"><g id="Livello_1-2" data-name="Livello 1"><circle class="cls-1" cx="303.76" cy="259.24" r="253.38"/><path d="M303.76,518.45c-120.46,0-174-27.49-222.07-70.63C34.06,405.07,3.88,323.38,3.88,254.68S38.93,105.12,94.63,64.9C124.23,43.53,146.19,0,303.76,0c71.29,0,133.29,28.79,181.87,77.37a257.2,257.2,0,0,1,0,363.75C437.05,489.7,372.46,518.45,303.76,518.45Zm0-508.75a249.55,249.55,0,0,0-176.46,426A249.55,249.55,0,1,0,480.22,82.79,247.9,247.9,0,0,0,303.76,9.7Z"/><circle class="cls-2" cx="257.21" cy="259.24" r="253.38"/><path d="M257.21,516.45A257.2,257.2,0,0,1,75.34,77.37,257.21,257.21,0,0,1,439.09,441.12,255.54,255.54,0,0,1,257.21,516.45Zm0-506.75a249.54,249.54,0,0,0-176.45,426A249.55,249.55,0,0,0,433.67,82.79,247.9,247.9,0,0,0,257.21,9.7Z"/><circle class="cls-3" cx="257.21" cy="259.24" r="223.15"/><path d="M257.21,486.23A227,227,0,0,1,96.71,98.74a227,227,0,0,1,321,321A225.46,225.46,0,0,1,257.21,486.23Zm0-446.31A219.32,219.32,0,0,0,102.13,414.33,219.32,219.32,0,1,0,412.29,104.16,217.89,217.89,0,0,0,257.21,39.92Z"/><line class="cls-4" x1="399.12" y1="50.29" x2="430.29" y2="39.76"/><polygon points="400.2 53.96 398.04 46.62 429.2 36.09 431.37 43.42 400.2 53.96"/><line class="cls-4" x1="356.45" y1="25.57" x2="383.2" y2="18.22"/><polygon points="357.11 29.33 355.78 21.82 382.54 14.46 383.87 21.97 357.11 29.33"/><line class="cls-4" x1="434.01" y1="77.75" x2="470.68" y2="68.62"/><rect x="433.45" y="69.35" width="37.79" height="7.66" transform="translate(-4.28 111.42) rotate(-13.98)"/><line class="cls-4" x1="462.65" y1="109.78" x2="501.59" y2="102.1"/><rect x="462.27" y="102.11" width="39.7" height="7.67" transform="translate(-11.39 95.36) rotate(-11.17)"/><line class="cls-4" x1="484.9" y1="146.34" x2="526.44" y2="140.02"/><rect x="484.66" y="139.35" width="42.02" height="7.66" transform="translate(-15.78 77.68) rotate(-8.65)"/><line class="cls-4" x1="504.7" y1="191.4" x2="549.05" y2="185.65"/><rect x="504.51" y="184.69" width="44.72" height="7.66" transform="translate(-19.86 69.29) rotate(-7.39)"/><line class="cls-4" x1="509.93" y1="237.39" x2="556.62" y2="232.27"/><rect x="509.79" y="231" width="46.97" height="7.66" transform="translate(-22.43 59.55) rotate(-6.26)"/><line class="cls-4" x1="507.85" y1="290.73" x2="556.38" y2="286.62"/><rect x="507.77" y="284.84" width="48.71" height="7.66" transform="translate(-22.46 45.93) rotate(-4.84)"/><line class="cls-4" x1="496.07" y1="339.3" x2="545.36" y2="337.6"/><rect x="496.06" y="334.62" width="49.31" height="7.66" transform="translate(-11.34 18.12) rotate(-1.97)"/><polygon points="476.13 387.68 475.96 380.02 527.07 378.63 527.25 386.29 476.13 387.68"/><line class="cls-4" x1="449.05" y1="423.91" x2="494.42" y2="424.29"/><polygon points="448.96 427.74 449.14 420.08 494.51 420.46 494.33 428.12 448.96 427.74"/><line class="cls-4" x1="412.19" y1="461.1" x2="455.56" y2="462.11"/><polygon points="412.05 464.93 412.33 457.27 455.7 458.28 455.42 465.94 412.05 464.93"/><line class="cls-4" x1="364.73" y1="489.25" x2="411.48" y2="488.61"/><polygon points="411.31 492.46 364.55 493.09 364.9 485.4 411.66 484.77 411.31 492.46"/><path class="cls-5" d="M131,251s-11.66,40.46,25.86,86.55c24.32,29.87,65.82,49.83,93,49.87,81.38.11,108.55-65,124-112,9.27-28.07,14.24-77.07,9.3-99.46-1.83-8.34-12.24-26.75-20.77-26.29-3.63.19-4.09.84-6.5-2.09-1-1.22-1.38-5.74-7.7-10.72-13.89-11-62.58-4.3-90.68,3.14-33.63,8.91-55.62,18.75-78,37.66C159.91,194.25,140.48,218,131,251Z"/><path class="cls-6" d="M362.59,163.41s-83.19,4.41-96.21,26.9c-35.81,61.82-44.2,31.12-96.36,58.37-49.81,26-6.2,77.22-5.54,78.24a108.69,108.69,0,0,0,84,49.28c45.56,3.34,90.33-22.94,113.86-99.36,18.87-61.28,9.92-96.95,9.92-96.95A38.75,38.75,0,0,0,362.59,163.41Z"/><path class="cls-7" d="M351.19,172.63s-40.59,8-60,14.06c-20.51,6.4-33.24,38-38,46.56-.58,1.06-2.49,4.4-2.93,5.52-.91,2.35-3.75,5.85-24.06,8.19-25.85,3,10.07,7.7,10.07,7.7s26,.72,26.95-7C265.63,229,273.68,207,298.17,196c7.42-3.33,43.59-13,48.51-15.63C350.8,178.21,351.19,172.63,351.19,172.63Z"/><path class="cls-8" d="M402.26,593.15c-3.31-2-4.33-4.86-4.32-8.74q.15-76.59.07-153.2v-4H330.28a17.06,17.06,0,0,1-3.28-.16,6.29,6.29,0,0,1-3.83-10.36,22.22,22.22,0,0,1,2-2.19L449.59,290.1c4.63-4.63,7.54-4.64,12.12,0Q523.84,352.34,586,414.63c.5.5,1,1,1.47,1.5,1.89,2.08,2.65,4.44,1.5,7.15a6.32,6.32,0,0,1-6.16,3.94c-4.59.08-9.18,0-13.77,0H512.91v3.94q0,76.74.05,153.5c0,3.89-1.16,6.76-4.75,8.46Z"/></g></g></svg>