<svg xmlns="http://www.w3.org/2000/svg" viewBox="0 0 383.3 383.32"><defs><style>.cls-1{fill:#80b192;}</style></defs><g id="Livello_2" data-name="Livello 2"><g id="Livello_1-2" data-name="Livello 1"><path class="cls-1" d="M223.86,383.32H159.49a8.1,8.1,0,0,0,.08-1.83c-3.11-16-6.19-32.05-9.46-48a5.15,5.15,0,0,0-2.84-2.87c-7.3-3.18-14.72-6.08-22-9.27-1.93-.84-3.29-.9-5.1.33-11.24,7.63-22.58,15.12-33.89,22.65-2.36,1.57-4.73,3.11-6.69,4.39L34.71,303.84c.56-.88,1.27-2,2-3.18,8.22-12.34,16.41-24.72,24.72-37a5.1,5.1,0,0,0,.49-5.75q-4.76-10.55-8.87-21.37a5.18,5.18,0,0,0-4.45-3.69c-15.18-2.9-30.31-6-45.49-8.84C.55,223.53,0,222.46,0,220.08q.11-28.43,0-56.87c0-2.47.72-3.38,3.22-3.85q23-4.29,45.83-9.05A6.3,6.3,0,0,0,52.81,147Q57.7,136.15,62,125a5.9,5.9,0,0,0-.3-4.63c-4.87-7.68-10-15.2-15-22.77-4.07-6.11-8.12-12.23-11.74-17.68l45-45c12.73,8.49,25.94,17.2,39,26.11,2.57,1.74,4.52,1.92,7.39.56,6.52-3.08,13.23-5.78,20-8.29,2.54-.95,3.71-2.18,4.22-4.86,2.84-15.06,5.94-30.07,8.78-45.13C159.8.82,160.65,0,163.16,0Q191.59.16,220,0c2.73,0,3.54.91,4,3.48,2.82,15.06,5.92,30.07,8.78,45.13.48,2.53,1.61,3.68,4,4.58,6.76,2.5,13.49,5.16,20,8.28,3,1.44,5,1.27,7.72-.58,13.07-8.92,26.29-17.61,39-26.07l45,45c-8.72,13.1-17.66,26.61-26.74,40-1.38,2-1.33,3.55-.34,5.76,3.12,6.92,6.07,13.92,8.71,21a5.37,5.37,0,0,0,4.7,3.92c8.82,1.62,17.6,3.48,26.42,5.12,7.31,1.37,14.66,2.57,22,3.84v64.38a5.21,5.21,0,0,0-1.45-.14c-16.13,3.13-32.27,6.24-48.36,9.55-1.19.25-2.47,1.86-3,3.13-3.14,7.17-5.95,14.49-9.14,21.64a4.81,4.81,0,0,0,.47,5.42c5,7.3,9.85,14.7,14.75,22.06l12.22,18.35-44.84,44.84c-.89-.57-2-1.29-3.16-2-12.45-8.28-24.91-16.54-37.3-24.9a4.85,4.85,0,0,0-5.42-.43c-7.15,3.19-14.38,6.22-21.7,9a4.84,4.84,0,0,0-3.46,4.21c-1.64,8.68-3.47,17.33-5.09,26C226.38,368.15,225.16,375.74,223.86,383.32Zm-32.31-113a78.6,78.6,0,1,0-78.47-78.63A78.73,78.73,0,0,0,191.55,270.28Z"/><path class="cls-1" d="M247.81,192a56.25,56.25,0,0,1-56.55,55.82c-30.84-.13-55.88-25.58-55.72-56.64.16-30.83,25.64-55.82,56.73-55.62C223,135.75,247.92,161.13,247.81,192Z"/></g></g></svg>